PathFileType	4	(X/Y/Z)	C:\Users\ebm\Documents\Erivelton\Erivelton2\wc10.trc
DataRate	CameraRate	NumFrames	NumMarkers	Units	OrigDataRate	OrigDataStartFrame	OrigNumFrames
150.00	150.00	      7	28	mm	150.00	977	      1302
Frame#	Time	IJ			PX			C7			T8			RAC			RAS			RPS			RAI			RPI			RLE			RME			RRS			RUS			R3M			R5M			LAC			LAS			LPS			LAI			LPI			LLE			LME			LRS			LUS			L3M			L5M			RW			LW			V_mid_elbow_r			V_mid_elbow_l			V_mid_wrist_r			V_mid_wrist_l			V_mid_trunk_low			V_mid_trunk_upp			
		X1	Y1	Z1	X2	Y2	Z2	X3	Y3	Z3	X4	Y4	Z4	X5	Y5	Z5	X6	Y6	Z6	X7	Y7	Z7	X8	Y8	Z8	X9	Y9	Z9	X10	Y10	Z10	X11	Y11	Z11	X12	Y12	Z12	X13	Y13	Z13	X14	Y14	Z14	X15	Y15	Z15	X16	Y16	Z16	X17	Y17	Z17	X18	Y18	Z18	X19	Y19	Z19	X20	Y20	Z20	X21	Y21	Z21	X22	Y22	Z22	X23	Y23	Z23	X24	Y24	Z24	X25	Y25	Z25	X26	Y26	Z26	X27	Y27	Z27	X28	Y28	Z28	

977	6.507	3118.95679	1028.97180	-1.80645	3121.04053	864.32153	33.84767	2996.02271	1131.77014	-30.24501	2913.53174	985.84515	-12.16693	3037.82471	1093.70728	190.32953	3103.85767	911.91406	250.05965	3057.63013	905.38818	270.78589	3131.80151	841.54181	269.80264	3084.07104	831.71429	293.14517	3121.06372	770.94641	299.18420	3085.01294	739.51178	235.59549	3352.24902	737.39893	149.72565	3350.07593	714.55182	208.82129	3431.53955	707.53412	175.79951	3414.90674	688.42371	208.06027	3046.72827	1050.89978	-198.78781	3112.28247	889.46680	-248.46114	3069.87329	865.04993	-253.28696	3158.36108	822.92804	-249.12604	3111.70654	792.49060	-254.24080	3196.21240	740.58569	-247.17093	3148.68042	706.44324	-200.26839	3391.18799	729.09290	-55.18253	3409.05981	700.74408	-108.58826	3478.18188	698.25653	-64.11504	3460.31616	683.14417	-100.48293	2990.35864	300.92349	336.74463	3091.28320	299.75513	-285.11432	
978	6.513	3125.81348	1029.07825	-0.55861	3127.98218	864.34576	35.06959	3002.97314	1131.81555	-28.90094	2920.45776	985.90436	-10.88195	3044.43433	1093.63782	191.58728	3110.83789	911.91962	251.20915	3064.54468	905.40295	271.97214	3138.94287	841.55548	271.21350	3090.97656	831.75427	294.34573	3127.98682	770.97968	300.45346	3091.94629	739.57941	236.70280	3359.28906	737.32068	150.93196	3357.15942	714.46942	210.03021	3438.57202	707.33008	176.97385	3421.90015	688.36279	209.29695	3053.68652	1050.88977	-197.43568	3119.07422	889.43433	-247.21532	3076.75244	865.02454	-251.85295	3165.26929	822.92645	-247.79222	3119.86279	792.42065	-252.17668	3203.29321	740.63495	-245.74902	3155.66162	706.50305	-198.78511	3398.27563	729.25867	-53.96521	3415.99976	700.77380	-107.32696	3485.02197	698.27374	-62.91371	3467.19409	683.16498	-99.37730	2997.29736	300.85410	337.87720	3098.23901	299.57819	-283.85812	
979	6.520	3132.81470	1029.22778	0.71618	3134.95850	864.36011	36.27695	3009.90015	1131.88318	-27.61609	2927.79614	985.79773	-9.69209	3051.64771	1093.69873	192.88408	3117.80908	912.06049	252.32552	3071.47095	905.45874	273.10501	3145.55469	841.75031	272.23895	3097.87817	831.84003	295.49612	3135.03442	771.00281	301.57062	3099.08423	739.67065	237.94016	3366.27905	737.24554	152.30316	3364.06421	714.40631	211.25005	3445.52271	707.29785	178.17941	3428.81665	688.27679	210.48723	3060.56128	1050.92566	-196.11963	3125.86694	889.51068	-245.88869	3083.58740	865.09589	-250.51031	3172.00830	822.95758	-246.49335	3126.63965	792.42853	-250.83168	3209.98560	740.67511	-244.43941	3162.43628	706.56384	-197.48933	3405.20190	729.28125	-52.71547	3422.91528	700.71082	-106.07394	3492.06860	698.28986	-61.58834	3474.11841	683.11609	-98.06525	3004.19580	300.78256	339.11990	3105.18481	299.75156	-282.79636	
980	6.527	3139.69922	1029.28284	2.03198	3142.18115	864.54797	37.66127	3016.77466	1131.92468	-26.36121	2934.43188	985.91333	-8.32335	3058.28931	1093.69934	194.07303	3124.44043	912.17242	253.56693	3078.32104	905.59875	274.33810	3152.42505	841.94696	273.47519	3104.78638	831.96619	296.67932	3141.82861	771.19238	302.90759	3105.95679	739.78534	239.03874	3373.04980	737.23633	153.59952	3371.00928	714.36426	212.63515	3452.44800	707.50452	179.61914	3435.78149	688.18665	211.73943	3067.45630	1050.96680	-194.81561	3132.80225	889.59363	-244.52045	3090.32520	865.19440	-249.14037	3178.79932	823.01892	-245.11955	3132.29736	792.58276	-250.15923	3216.79126	740.69781	-243.05460	3169.50366	706.56189	-195.97014	3412.11865	729.35358	-51.56320	3429.84106	700.72656	-104.75182	3498.87671	698.28522	-60.44213	3480.96704	683.20068	-96.81555	3011.14697	300.67407	340.30560	3112.24341	299.64066	-281.54477	
981	6.533	3146.53784	1029.34558	3.28183	3149.02344	864.53119	38.82016	3023.66968	1132.02625	-25.03861	2941.71021	985.77142	-7.01166	3065.52661	1093.80969	195.33623	3131.47192	912.50159	254.90234	3085.16772	905.78925	275.50302	3159.23071	842.10626	274.75455	3112.04736	831.90973	298.01129	3148.66577	771.35388	304.23477	3112.86035	739.92725	240.25674	3380.13574	737.45801	154.93407	3377.88379	714.30902	214.02182	3459.28052	707.45355	180.90007	3442.57007	688.10248	213.10550	3074.36841	1051.12866	-193.46700	3139.56372	889.75800	-243.12329	3097.09570	865.35370	-247.79103	3185.68359	823.18359	-243.76004	3139.07690	792.78271	-248.77995	3223.63330	740.97546	-241.65631	3176.36206	706.69836	-194.56537	3419.13428	729.43262	-50.45187	3436.64746	700.81042	-103.59500	3505.79199	698.34186	-59.15760	3488.05298	683.22174	-95.68292	3018.15918	300.50485	341.48355	3119.23462	299.77356	-280.51236	
982	6.540	3153.68872	1029.44775	4.68109	3155.86035	864.51648	40.09083	3030.65356	1132.10461	-23.70392	2948.66943	985.81580	-5.65540	3072.49561	1093.90771	196.51498	3138.42139	912.59747	256.03821	3092.03149	906.05768	276.66064	3166.06494	842.31030	276.04642	3118.42188	832.34521	299.16550	3155.48901	771.54950	305.58121	3119.79126	740.08221	241.60139	3386.88037	737.44482	156.40366	3384.56665	714.26184	215.31096	3466.61768	707.17004	182.17511	3449.38892	687.94916	214.25900	3081.26831	1051.38501	-192.04726	3146.39380	890.01099	-241.69653	3103.86475	865.52173	-246.42433	3192.38306	823.40179	-242.42365	3145.92700	792.95068	-247.35248	3230.55249	741.10193	-240.48190	3183.08423	706.95642	-193.32561	3425.95825	729.66595	-49.28410	3443.65723	700.74530	-102.45380	3512.63354	698.28906	-58.24104	3494.75049	683.07813	-94.48438	3025.15552	300.37262	342.62289	3126.31787	299.59451	-279.15427	
983	6.547	3160.49854	1029.50024	5.94598	3163.03564	864.68964	41.60774	3037.56323	1132.12500	-22.35765	2955.71973	985.78394	-4.34905	3079.46362	1094.02783	197.64424	3145.20776	912.88586	257.11981	3098.92651	906.35791	277.77307	3172.79126	842.54028	277.29407	3125.15942	832.66266	300.43790	3162.36182	771.76093	306.94534	3126.65381	740.27582	242.88821	3393.76758	737.52942	157.80577	3391.56177	714.23096	216.66718	3474.10913	707.06427	183.74281	3456.29785	688.13519	215.72539	3088.40527	1051.48059	-190.39169	3153.07275	890.25275	-240.24783	3110.57910	865.82886	-245.06239	3199.05225	823.71619	-241.10732	3152.69019	793.18787	-245.97539	3237.03516	741.42084	-239.18677	3189.80908	707.25409	-192.12509	3432.92627	729.68164	-48.31054	3450.41846	700.65240	-101.48118	3519.48389	698.15381	-57.14914	3501.70605	682.99359	-93.45641	3032.03613	300.24387	343.82324	3133.24902	299.75208	-277.95523	
